<svg xmlns="http://www.w3.org/2000/svg" xmlns:xlink="http://www.w3.org/1999/xlink" viewBox="0 0 340.22 198.56"><defs><style>.cls-1{fill:none;}.cls-2{clip-path:url(#clip-path);}.cls-3{fill:#fff;fill-rule:evenodd;}.cls-4{fill:#94d600;}</style><clipPath id="clip-path" transform="translate(0 0)"><rect class="cls-1" width="340.22" height="198.56"/></clipPath></defs><g id="Слой_2" data-name="Слой 2"><g id="Слой_1-2" data-name="Слой 1"><g class="cls-2"><path class="cls-3" d="M54.54,108.3l12.25-5.13,1.45-17.34L52.92,74.09l-16.34,6-1.8,13.11a41.59,41.59,0,0,0,8.72,9.08h0a41.37,41.37,0,0,0,11,6.06M27.35,68.05,36.28,79l16.35-6,6.42-18.15L49.05,42,35.53,44.76a41.2,41.2,0,0,0-8.18,23.29m30-38.31L50,41.38,60,54.24l19.21.5,9.47-12.36L81.75,30.31a41.43,41.43,0,0,0-24.36-.57M103,46.62,89.58,43.07,80.1,55.42l5.47,18.43,15.07,6.21L109.91,70a41.88,41.88,0,0,0-.36-5.93A41.35,41.35,0,0,0,103,46.62m-2,48.38-.8-13.88-15-6.2L69.37,85.83l-1.45,17.34L80.71,109a40.93,40.93,0,0,0,20.36-14" transform="translate(0 0)"/><path class="cls-4" d="M269.73,142.4a60.57,60.57,0,0,1-8.42-.58c-22.48-3.1-43-19.62-51-41.11s-3.77-46.82,10.75-64.78c.75-.92,1.52-1.82,2.32-2.7,6.76-11.73,16.67-21.15,28.12-26.38C271-2,295.19,1.3,312.92,14.4A48.14,48.14,0,0,1,330.11,34a71,71,0,0,1,8,22.21,75.46,75.46,0,0,1,1.09,18.16,73.76,73.76,0,0,1-2.36,15.33,59.25,59.25,0,0,1-8.53,19c-1.21,2-2.51,3.88-3.88,5.72a41.19,41.19,0,0,1-6.09,8.42,41.63,41.63,0,0,1-12.14,8.73,67.6,67.6,0,0,1-36.43,10.85M217.38,46.66c-8.91,16.08-10.7,35.91-4.31,53,7.66,20.51,27.21,36.27,48.64,39.23a62.3,62.3,0,0,0,27-2.4c-11,1.31-22.08-.21-31.45-1.87-10.17-1.81-20.61-4.46-28.06-11.52-6.75-6.4-9.93-15.6-11.73-22-5.35-18.87-5.48-37.44-.38-53.68l.27-.82M223,108.11a36.61,36.61,0,0,0,8.3,12.87c6.88,6.53,16.83,9,26.55,10.76,9.3,1.65,20.26,3.16,31.09,1.78A51.77,51.77,0,0,0,304.7,129l.47-.31a66.6,66.6,0,0,0,9-7.18c-.47.27-.94.52-1.41.77-10.33,7.26-24.26,10.46-39.36,9q-1.89-.18-3.75-.45c-12.6-.34-26.76-3.36-37.93-12.82a47.67,47.67,0,0,1-8.76-9.89m-3-42.61a55.33,55.33,0,0,0,1.87,22.75c6.32,20.84,25.57,36.54,46.82,38.19s43.23-11.89,50.78-31.54c4-10.48,4.72-23.15,2.1-38.75-2.5-14.9-7-25-14.2-31.66-7.82-7.29-18.25-9.77-25.61-10.57a64.25,64.25,0,0,0-8.66-.33,64.84,64.84,0,0,0-18.27,5q-1.32.7-2.64,1.47c-14.31,8.34-25.25,21.55-30,36.23a56.66,56.66,0,0,0-2.17,9.25m79.14-50a38.93,38.93,0,0,1,10.24,6.8c7.69,7.16,12.48,17.75,15.1,33.32,2.7,16.13,2,29.31-2.26,40.3a52.24,52.24,0,0,1-21.47,25.3,56.56,56.56,0,0,1-10.21,5l.15,0c8.31-1.5,15-3.59,20.55-6.42l.57-.42a47.26,47.26,0,0,0,15.14-19.41,156.62,156.62,0,0,0,3.54-21.85c1.1-10,2.32-21.13.47-31.63A43.66,43.66,0,0,0,329,40.67c-.51-1-1-1.89-1.6-2.82A56.44,56.44,0,0,0,315.56,24a53.46,53.46,0,0,0-5-3.31,59.75,59.75,0,0,0-11.44-5.18h-.05M216.82,81.09c1,13.68,7.15,26.49,16.79,34.66a47.27,47.27,0,0,0,13.94,8.09,58,58,0,0,1-22.62-20,54.77,54.77,0,0,1-8.11-22.78M336.05,65A96.37,96.37,0,0,1,332.9,91.7a70.2,70.2,0,0,0,3.39-20.13c0-2.19-.06-4.37-.24-6.53M219,51.59l-.09.35.11-.27s0-.05,0-.08M225.76,35a68.46,68.46,0,0,0-5.84,13.39c-.08.27-.17.54-.25.81a65.09,65.09,0,0,1,16-22.81l.54-.55A64.06,64.06,0,0,0,225.76,35M275,4.81a53.66,53.66,0,0,0-22.31,4.72,57.7,57.7,0,0,0-19.41,14.79,70.84,70.84,0,0,1,15.28-8.49,64.22,64.22,0,0,1,31.1-10.48c.89,0,1.78-.08,2.66-.09A59.81,59.81,0,0,0,275,4.81m7.12,3.6c.77,0,1.54,0,2.31.05a54.78,54.78,0,0,1,30,11Q312.81,18,311,16.67a52,52,0,0,0-31.18-8.38,57.13,57.13,0,0,0-11.78,1.93,56.88,56.88,0,0,1,14.07-1.81" transform="translate(0 0)"/><path class="cls-4" d="M278.37,133.1a61.87,61.87,0,0,1-40.5-15c-.81-.72-1.61-1.45-2.38-2.21-10.46-6.6-18.69-16-23.05-26.63C205,71.13,209,49.14,221.57,33.45a43.93,43.93,0,0,1,18.47-15A64.61,64.61,0,0,1,260.59,12a68.56,68.56,0,0,1,16.62-.34,66.72,66.72,0,0,1,13.9,2.71,54.08,54.08,0,0,1,17.06,8.48c1.75,1.17,3.45,2.42,5.08,3.75a36.13,36.13,0,0,1,15,17.26A61,61,0,0,1,336,85.18c-3.65,20.4-19.47,38.51-39.37,45a58.6,58.6,0,0,1-18.24,2.87m-30.84-11.29c14.35,8.72,32.38,11.07,48.24,5.86,19-6.24,34.08-23.5,37.56-43A56.81,56.81,0,0,0,332.12,60c.8,10.12-1,20.14-2.84,28.63-2,9.21-4.82,18.65-11.54,25.19-6.08,5.92-14.59,8.49-20.46,9.9-17.43,4.2-34.37,3.64-49-1.61l-.74-.27m71.54-24.72A53,53,0,0,1,300,117a49.74,49.74,0,0,1-21.07,6.57c12.51-.38,24.43-5.55,32.23-14.06a43.19,43.19,0,0,0,7.9-12.42m-54.26,23.08a50.49,50.49,0,0,0,20.84-.88c19.24-5,34.28-22,36.56-41.34s-9.28-39.88-26.94-47.49c-9.42-4.06-21-5.15-35.29-3.33-13.69,1.74-23,5.49-29.41,11.81-6.93,6.87-9.58,16.29-10.57,23a57.86,57.86,0,0,0-.62,7.89,59.1,59.1,0,0,0,3.86,16.85c.39.82.81,1.65,1.24,2.47,7.1,13.36,18.75,23.83,32,28.71a51.94,51.94,0,0,0,8.36,2.32m-12.72.35.31.1-.24-.11h-.07m-14.91-6.78a62.46,62.46,0,0,0,12,5.81l.74.26a59.28,59.28,0,0,1-20.24-15.47l-.48-.51a58.24,58.24,0,0,0,8,9.91m89.06-36.56c-.77,11.49-4,24.3-13.08,34.15a43.81,43.81,0,0,1-9.34,7.64,33.63,33.63,0,0,0,12.05-7.11c6.2-6,8.85-15,10.78-23.84,1.85-8.43,3.62-18.38,2.75-28.31a47,47,0,0,0-3.56-14.59l-.27-.45a61.54,61.54,0,0,0-6.22-8.46c.22.44.44.88.65,1.32,6.25,9.69,8.66,22.52,6.79,36.24-.16,1.15-.34,2.29-.55,3.41M212.12,61a50.17,50.17,0,0,0,2.81,27.19,52.8,52.8,0,0,0,12.79,18.26,64.83,64.83,0,0,1-7.19-14.25,58.69,58.69,0,0,1-8.43-28.77c0-.82,0-1.63,0-2.43m11.45-25.76a47.57,47.57,0,0,0-8.79,28.14,52.17,52.17,0,0,0,1.34,10.82,51,51,0,0,1-1-15,50,50,0,0,1,11.1-27q-1.38,1.48-2.64,3.06m49-11.66c9.08,0,16.92,1.46,23.75,4.4a47.73,47.73,0,0,1,22.31,20.52A51.54,51.54,0,0,1,322.8,58a.68.68,0,0,0,0-.14,66.9,66.9,0,0,0-5.12-19c-.11-.18-.23-.35-.35-.53a43.17,43.17,0,0,0-17.16-14.52,142.41,142.41,0,0,0-19.82-4c-9.13-1.37-19.2-2.88-28.85-1.58a42.15,42.15,0,0,0-5.36,1.54c-.88.43-1.76.88-2.62,1.36a51.56,51.56,0,0,0-13.06,10.27,51.37,51.37,0,0,0-3.2,4.44,56,56,0,0,0-5.15,10.26s0,0,0,0A35.45,35.45,0,0,1,228.68,37c6.82-6.76,16.66-10.75,31-12.57a103,103,0,0,1,12.94-.87m-4-9.41A88.13,88.13,0,0,1,292.84,18a64.8,64.8,0,0,0-18.25-3.83q-3-.15-6,0" transform="translate(0 0)"/><path class="cls-4" d="M237.57,198.44a4.92,4.92,0,0,1-4.19-1.73,3.56,3.56,0,0,1-.6-2.84,7,7,0,0,1,3.23-4.2,20.22,20.22,0,0,1,16.69-2,308.68,308.68,0,0,1,4.19-47,1.47,1.47,0,1,1,2.9.48,311.62,311.62,0,0,0-4.18,48.6c.12.84.21,1.44.28,1.9a11.26,11.26,0,0,1,.19,3c0,.35,0,.78-.05,1.36a1.48,1.48,0,0,1-1.39,1.43l-16.13.94c-.25,0-.57,0-.94,0m8.92-8.77a16.83,16.83,0,0,0-8.92,2.5,4.22,4.22,0,0,0-1.9,2.27.62.62,0,0,0,.1.56c.38.53,1.65.52,2.57.47l14.79-.86v0a8.46,8.46,0,0,0-.15-2.46l-.19-1.23a16.69,16.69,0,0,0-6.3-1.21" transform="translate(0 0)"/><path class="cls-4" d="M296.27,198.56a79.27,79.27,0,0,1-12.69-1,1.53,1.53,0,0,1-1-.61,1.44,1.44,0,0,1-.24-1.12c.28-1.5.54-3,.79-4.44l0-.19a160.71,160.71,0,0,0,.77-50.8,1.47,1.47,0,1,1,2.91-.42,162.34,162.34,0,0,1-.42,49.47l.87-.27c5.54-1.79,10.36-3.16,13.2-1.88,2.56,1.16,4.34,3.19,4.62,5.31a4.73,4.73,0,0,1-1.83,4.34c-1.65,1.38-3.82,1.6-5.92,1.63h-1.12m-10.73-3.7a76.47,76.47,0,0,0,11.81.75c1.45,0,3.08-.11,4.07-.94a1.76,1.76,0,0,0,.81-1.68c-.15-1.09-1.33-2.3-2.92-3-2-.93-7.7.9-11.09,2-.85.27-1.62.52-2.3.72-.12.72-.25,1.45-.38,2.18" transform="translate(0 0)"/><path class="cls-4" d="M327.83,141.86a1.39,1.39,0,0,1-.65-.16,1.47,1.47,0,0,1-.66-2c9.3-18.59,12.93-41.87,9.48-60.76a1.47,1.47,0,0,1,2.9-.53c3.56,19.48-.18,43.47-9.75,62.61a1.48,1.48,0,0,1-1.32.82" transform="translate(0 0)"/><path class="cls-4" d="M321.82,155.35a6.55,6.55,0,0,1-5.59-3.39,8.24,8.24,0,0,1-.48-7.9c1.7-3.31,5.48-5.36,9.86-5.36a13.1,13.1,0,0,1,2.51.24,1.48,1.48,0,0,1,1.19,1.43c0,.72.08,1.57.17,2.47.21,2.29.45,4.88-.36,6.93-1.08,2.72-3.72,5.5-7.16,5.58Zm3.79-13.71c-3.22,0-6.06,1.48-7.24,3.77a5.32,5.32,0,0,0,.37,5,3.7,3.7,0,0,0,3.08,2h.07c2.09,0,3.79-2,4.49-3.73.56-1.39.35-3.61.17-5.57-.05-.49-.1-1-.13-1.44l-.81,0" transform="translate(0 0)"/><path class="cls-4" d="M164.18,108.64A11.54,11.54,0,0,1,154,102c-7.14,1.8-15.14-1.35-20.18-6.13C127.61,90,126.31,87,123.46,79.2a1.47,1.47,0,1,1,2.76-1c2.73,7.45,3.87,10.07,9.59,15.5,4.91,4.66,13,7.59,19.48,4.72l1.32-.68a2,2,0,0,0,1-.5c2.3-.93,4.91-2,7.74-1.81s6.22,2.06,6.82,5.33a5.8,5.8,0,0,1-1.32,4.77,8.89,8.89,0,0,1-6.5,3.11h-.18M156.75,101a8.49,8.49,0,0,0,7.42,4.71h.14a6,6,0,0,0,4.27-2,3,3,0,0,0,.71-2.38c-.32-1.69-2.34-2.82-4.1-2.92-2.17-.13-4.46.79-6.47,1.6a1.25,1.25,0,0,1-.37.09,1.22,1.22,0,0,1-.33.27c-.42.24-.84.46-1.27.66" transform="translate(0 0)"/><path class="cls-4" d="M167.2,105.87a10.22,10.22,0,0,1-7.27-2.87,8,8,0,0,1-2.14-7.74A7.62,7.62,0,0,1,163.33,90c2.8-.74,6-.24,9.67,1.51a34.26,34.26,0,0,0,7,2.35l.17,0c9.66,2.12,21.25.74,27.9-5.9A1.47,1.47,0,1,1,210.15,90c-7.26,7.26-19.29,9-29.67,6.92-2.06,3.18-6.2,7.1-9.48,8.26a11.37,11.37,0,0,1-3.8.65m-1.27-13.29a7.08,7.08,0,0,0-1.86.24A4.61,4.61,0,0,0,160.63,96a5.07,5.07,0,0,0,1.4,4.89,7.84,7.84,0,0,0,8,1.51c2.31-.81,5.5-3.71,7.39-6.21a36.38,36.38,0,0,1-5.65-2.09,14,14,0,0,0-5.82-1.56" transform="translate(0 0)"/><path class="cls-4" d="M34.07,129.67a41.36,41.36,0,0,1-12.15-8.73,40.92,40.92,0,0,1-6.09-8.42c-1.37-1.84-2.67-3.74-3.87-5.71a59.46,59.46,0,0,1-8.54-19A73.75,73.75,0,0,1,1.06,72.44a75.9,75.9,0,0,1,1.1-18.15,70.73,70.73,0,0,1,8-22.21,48.17,48.17,0,0,1,17.2-19.55C45-.58,69.25-3.92,88.72,5c11.46,5.24,21.36,14.66,28.13,26.39.79.87,1.56,1.77,2.31,2.69,14.52,18,18.74,43.4,10.75,64.79s-28.52,38-51,41.11a62.14,62.14,0,0,1-8.42.57,67.56,67.56,0,0,1-36.42-10.85m89-84.06c5.1,16.24,5,34.8-.38,53.68-1.8,6.36-5,15.56-11.73,22-7.45,7.06-17.89,9.7-28.06,11.51-9.37,1.67-20.41,3.19-31.45,1.87a62.31,62.31,0,0,0,27,2.4c21.44-3,41-18.72,48.64-39.22,6.39-17.12,4.6-36.95-4.31-53l.27.82m-14.6,70.51c-11.17,9.46-25.33,12.48-37.93,12.82-1.24.19-2.49.34-3.75.46-15.09,1.45-29-1.75-39.35-9-.48-.24-.95-.5-1.42-.76a68,68,0,0,0,9,7.18l.48.31a51.9,51.9,0,0,0,15.8,4.53c10.83,1.38,21.8-.12,31.09-1.78,9.73-1.72,19.67-4.22,26.55-10.75a36.64,36.64,0,0,0,8.31-12.87,47.41,47.41,0,0,1-8.77,9.88m9.61-61.75c-4.77-14.67-15.71-27.88-30-36.23-.87-.51-1.76-1-2.64-1.46a64.54,64.54,0,0,0-18.26-5,62.59,62.59,0,0,0-8.66.33c-7.37.8-17.8,3.28-25.62,10.57-7.19,6.69-11.7,16.76-14.2,31.66C16.11,69.87,16.79,82.55,20.82,93c7.55,19.65,29.38,33.21,50.78,31.54s40.5-17.36,46.83-38.19a55.38,55.38,0,0,0,1.87-22.76,57.75,57.75,0,0,0-2.18-9.25m-77-40.72a60.5,60.5,0,0,0-11.45,5.19,51.55,51.55,0,0,0-5,3.31A56.25,56.25,0,0,0,12.85,36c-.56.92-1.09,1.86-1.6,2.81a45.16,45.16,0,0,0-1.92,5.79c-1.85,10.5-.63,21.59.47,31.63a156.77,156.77,0,0,0,3.54,21.86,47.33,47.33,0,0,0,15.14,19.41l.57.41c5.51,2.83,12.24,4.93,20.56,6.43l.15,0a56.58,56.58,0,0,1-10.21-5,52.3,52.3,0,0,1-21.48-25.3c-4.22-11-5-24.17-2.25-40.3,2.61-15.57,7.41-26.16,15.09-33.33a39.05,39.05,0,0,1,10.24-6.79l0,0M115.29,102a58,58,0,0,1-22.62,20,47.27,47.27,0,0,0,13.94-8.1c9.65-8.16,15.82-21,16.79-34.65A54.4,54.4,0,0,1,115.29,102M3.93,69.69a70.34,70.34,0,0,0,3.4,20.14A96,96,0,0,1,4.18,63.17q-.28,3.24-.25,6.52m117.28-19.9c0,.09.08.18.11.27l-.09-.34a.19.19,0,0,1,0,.07M104,24l.54.55a64.87,64.87,0,0,1,16,22.81l-.25-.82a68.63,68.63,0,0,0-5.84-13.38A63.24,63.24,0,0,0,104,24M57.87,3.39c.88,0,1.77,0,2.66.08A64.16,64.16,0,0,1,91.64,14a71,71,0,0,1,15.28,8.48A57.87,57.87,0,0,0,87.5,7.65,53.62,53.62,0,0,0,65.19,2.93a59.82,59.82,0,0,0-7.32.46m14.27,5A56.38,56.38,0,0,0,60.36,6.41,52,52,0,0,0,29.19,14.8c-1.19.87-2.34,1.78-3.46,2.75a54.84,54.84,0,0,1,30-11c.77,0,1.54,0,2.32,0A56.88,56.88,0,0,1,72.14,8.35" transform="translate(0 0)"/><path class="cls-4" d="M43.62,128.35c-19.9-6.54-35.73-24.64-39.38-45A61,61,0,0,1,12,42a37.7,37.7,0,0,1,7.52-11.4A37.17,37.17,0,0,1,27,24.74c1.62-1.32,3.32-2.57,5.07-3.74a54.2,54.2,0,0,1,17.06-8.49A68.18,68.18,0,0,1,63,9.8a69.57,69.57,0,0,1,16.62.34,64.62,64.62,0,0,1,20.55,6.46,43.93,43.93,0,0,1,18.47,15c12.61,15.69,16.54,37.68,9.13,55.77-4.36,10.64-12.59,20-23,26.63-.77.75-1.56,1.49-2.38,2.2a61.88,61.88,0,0,1-40.5,15,58.21,58.21,0,0,1-18.23-2.88M92,120.21c-14.64,5.25-31.58,5.81-49,1.61-5.87-1.41-14.38-4-20.47-9.91C15.77,105.37,13,95.94,11,86.72,9.09,78.23,7.3,68.22,8.1,58.09A56.85,56.85,0,0,0,6.89,82.84c3.48,19.45,18.58,36.72,37.57,43,15.85,5.21,33.88,2.85,48.23-5.86l-.74.27m-62.9-12.57c7.8,8.5,19.72,13.67,32.24,14.06a49.92,49.92,0,0,1-21.08-6.57,53,53,0,0,1-19-19.92,43.06,43.06,0,0,0,7.89,12.43M83.77,116c13.22-4.89,24.87-15.36,32-28.72.44-.82.85-1.64,1.25-2.47A58.94,58.94,0,0,0,120.84,68a57.85,57.85,0,0,0-.61-7.89c-1-6.7-3.64-16.12-10.58-23C103.28,30.75,93.93,27,80.24,25.26,65.91,23.44,54.37,24.53,45,28.59c-17.66,7.6-29.23,28-26.94,47.49s17.32,36.33,36.56,41.34a50.5,50.5,0,0,0,20.84.88A52.7,52.7,0,0,0,83.77,116m4.29,2.65-.24.11.31-.09-.07,0M111,102l-.48.51a59.46,59.46,0,0,1-20.23,15.47l.73-.26a62.5,62.5,0,0,0,12-5.82,57.78,57.78,0,0,0,8-9.9M13.43,71.9c-1.87-13.72.54-26.56,6.8-36.25.2-.44.42-.88.64-1.31a61.15,61.15,0,0,0-6.22,8.46l-.27.45a47.53,47.53,0,0,0-3.56,14.59c-.87,9.93.91,19.88,2.76,28.31C15.51,95,18.15,103.94,24.36,110a33.69,33.69,0,0,0,12,7.11,43.32,43.32,0,0,1-9.34-7.64C18,99.6,14.75,86.79,14,75.31c-.21-1.13-.39-2.26-.55-3.41m114.7-10.34a58.56,58.56,0,0,1-8.44,28.77,64.68,64.68,0,0,1-7.19,14.26,52.54,52.54,0,0,0,12.79-18.26,50.21,50.21,0,0,0,2.82-27.2c0,.81,0,1.62,0,2.43M114,30.32a50.08,50.08,0,0,1,11.09,27,51,51,0,0,1-1,15,52.16,52.16,0,0,0,1.34-10.81,47.53,47.53,0,0,0-8.79-28.15c-.84-1-1.72-2.06-2.63-3M80.58,22.59c14.31,1.82,24.15,5.81,31,12.56a35.78,35.78,0,0,1,6.58,9.1v0A55.65,55.65,0,0,0,113,34a51.37,51.37,0,0,0-3.2-4.44A51.82,51.82,0,0,0,96.72,19.23c-.86-.47-1.73-.92-2.62-1.35a38.7,38.7,0,0,0-5.36-1.54C79.1,15,69,16.54,59.89,17.91a143.38,143.38,0,0,0-19.81,4A43.05,43.05,0,0,0,22.91,36.47c-.12.17-.23.35-.35.53a67.14,67.14,0,0,0-5.12,19s0,.09,0,.13a51.5,51.5,0,0,1,4.16-9.5,47.69,47.69,0,0,1,22.3-20.51c6.83-2.94,14.67-4.4,23.75-4.4a103.25,103.25,0,0,1,13,.87m-15-10.27a64.46,64.46,0,0,0-18.25,3.83,87.81,87.81,0,0,1,24.21-3.84c-2-.09-4-.09-6,0" transform="translate(0 0)"/><path class="cls-4" d="M101.72,196.54l-16.14-.95a1.48,1.48,0,0,1-1.39-1.42c0-.58,0-1,0-1.36a10.84,10.84,0,0,1,.18-3c.07-.46.17-1.07.29-1.9a310.38,310.38,0,0,0-4.19-48.6,1.47,1.47,0,1,1,2.91-.48,309.66,309.66,0,0,1,4.18,47,20.17,20.17,0,0,1,16.7,2,7,7,0,0,1,3.22,4.19,3.57,3.57,0,0,1-.59,2.85,5,5,0,0,1-4.2,1.73c-.37,0-.69,0-.93,0M87.43,189c-.07.5-.14.9-.19,1.23a9.23,9.23,0,0,0-.15,2.46v0l14.8.87c.92.05,2.18.06,2.56-.48a.62.62,0,0,0,.1-.56,4.26,4.26,0,0,0-1.9-2.27,16.91,16.91,0,0,0-8.92-2.49,16.73,16.73,0,0,0-6.3,1.21" transform="translate(0 0)"/><path class="cls-4" d="M42.83,196.68c-2.1,0-4.26-.25-5.92-1.63a4.73,4.73,0,0,1-1.83-4.33c.29-2.12,2.06-4.15,4.62-5.31,2.84-1.28,7.66.09,13.2,1.87l.87.28a162.66,162.66,0,0,1-.42-49.47,1.47,1.47,0,0,1,2.92.41A160.47,160.47,0,0,0,57,189.31a.57.57,0,0,1,0,.18c.25,1.47.51,2.95.79,4.45a1.46,1.46,0,0,1-1.21,1.72,78.14,78.14,0,0,1-12.69,1H42.83m11.47-5.87c-.68-.2-1.45-.45-2.3-.72-3.38-1.09-9-2.92-11.08-2-1.6.72-2.78,1.94-2.92,3a1.72,1.72,0,0,0,.8,1.67c1,.84,2.62.93,4.07,1A75.26,75.26,0,0,0,54.68,193c-.13-.73-.26-1.45-.38-2.17" transform="translate(0 0)"/><path class="cls-4" d="M12.39,140a1.55,1.55,0,0,0,.66-.15,1.49,1.49,0,0,0,.66-2C4.41,119.26.77,96,4.22,77.09A1.49,1.49,0,0,0,3,75.37a1.49,1.49,0,0,0-1.72,1.19C-2.23,96,1.5,120,11.07,139.17a1.48,1.48,0,0,0,1.32.81" transform="translate(0 0)"/><path class="cls-4" d="M18.26,153.48c-3.44-.09-6.07-2.87-7.16-5.59-.81-2-.57-4.63-.36-6.92.09-.9.17-1.75.18-2.48a1.47,1.47,0,0,1,1.18-1.43,13.1,13.1,0,0,1,2.51-.24c4.38,0,8.16,2.06,9.86,5.37a8.26,8.26,0,0,1-.47,7.9,6.58,6.58,0,0,1-5.6,3.39ZM13.8,139.8c0,.47-.08.95-.12,1.44-.19,2-.39,4.18.16,5.57.7,1.76,2.4,3.67,4.49,3.72h.07a3.7,3.7,0,0,0,3.08-2,5.34,5.34,0,0,0,.37-5c-1.17-2.28-4-3.76-7.24-3.76q-.4,0-.81,0" transform="translate(0 0)"/><path class="cls-3" d="M251.29,107.3l12.93-3.07,4.25-16.86-13.2-14.09L238.18,76.5l-3.91,12.64a41.1,41.1,0,0,0,7.12,10.38h0a41.49,41.49,0,0,0,9.9,7.77M231,63.16l7,12.22,17.11-3.22,9.28-16.86L256.68,41l-13.78.52A41,41,0,0,0,231,63.16m35.88-32.91L257.7,40.53l7.79,14.33,18.87,3.61,11.36-10.65-4.87-13a41.32,41.32,0,0,0-18-4.77,42.09,42.09,0,0,0-5.94.23m42.27,24.1-12.69-5.7L285.13,59.3l2.39,19.07,13.86,8.57,10.79-8.41a41.84,41.84,0,0,0,.61-5.91,41.23,41.23,0,0,0-3.6-18.27m-9.81,47.41,1.47-13.83L287,79.37l-17.41,8.17-4.26,16.88L277,112.21a41.09,41.09,0,0,0,22.36-10.45" transform="translate(0 0)"/></g></g></g></svg>