<svg xmlns="http://www.w3.org/2000/svg" viewBox="0 0 108.66 108.66"><defs><style>.cls-1{fill:#94d600;}</style></defs><g id="Слой_2" data-name="Слой 2"><g id="Слой_1-2" data-name="Слой 1"><path d="M108.66,54.33A54.33,54.33,0,1,1,54.33,0a54.32,54.32,0,0,1,54.33,54.33"/><path class="cls-1" d="M67.65,47.76H53.27V39.47c0-7.87,4.14-11.08,10.14-11.08a12.58,12.58,0,0,1,4.24.66c0-4,0-7.91.07-11.87a33.2,33.2,0,0,0-4.31-.28c-13.36,0-22.47,7.45-22.47,22.57v52.3H53.27V58.94H67.68q0-5.59,0-11.18"/></g></g></svg>