<svg xmlns="http://www.w3.org/2000/svg" xmlns:xlink="http://www.w3.org/1999/xlink" viewBox="0 0 256.9 278.42"><defs><style>.cls-1{fill:none;}.cls-2{clip-path:url(#clip-path);}.cls-3{fill:#54565a;}.cls-4{fill:#94d600;fill-rule:evenodd;}</style><clipPath id="clip-path" transform="translate(0 0)"><rect class="cls-1" width="256.9" height="278.42"/></clipPath></defs><g id="Слой_2" data-name="Слой 2"><g id="Слой_1-2" data-name="Слой 1"><g class="cls-2"><path class="cls-3" d="M189.4,116.79a220.72,220.72,0,0,1,46.62-22c1.7-.57,1.44-4.39-.27-3.82a223.87,223.87,0,0,0-47.29,22.36c-1.64,1-.69,4.51.94,3.5" transform="translate(0 0)"/><path class="cls-3" d="M134.93,77.12c-13-6.32-27.32-2-38.87,5.4a92.56,92.56,0,0,0-29.95,32.12c-3.45,6.12-5.66,12.56-5.52,19.66.15,7.41,2.74,14.59,6.26,21,7.33,13.38,19.4,24.76,32.74,32,15,8.22,32.59,10.63,49,5.15a75.42,75.42,0,0,0,22.11-12.31c6.9-5.37,13.38-11.6,17.31-19.52,7.21-14.58,2.63-31.1-3-45.37s-16-26.4-29.82-33-29.67-6.71-44-1.82C96.4,85.51,83.78,96,75,108.75s-13.53,28.41-10.5,43.73C67.37,167.11,77.61,179,89.76,187A81.1,81.1,0,0,0,132,200.31a66.41,66.41,0,0,0,41.4-13.6,63,63,0,0,0,23.06-35.28c3.8-15.68.79-32.12-4.79-47-3-7.86-7.2-15.27-13.31-21.1s-14-9.39-22.09-11.48a80,80,0,0,0-46.85,2.32c-26.77,9.72-55.2,35-52.73,66,1.28,16,10.75,30.49,22.58,40.84a72.27,72.27,0,0,0,20.23,12.54,63.49,63.49,0,0,0,21,4.29c13,.68,26.36-.52,38.74-4.62,11.54-3.81,22.43-10.76,28.08-21.85,3-5.83,3.88-12.15,4.28-18.6a125.08,125.08,0,0,0-.39-20.39c-1.34-13.15-5-26.65-13-37.34a43.15,43.15,0,0,0-14.41-12.24c-7.47-3.88-16-5.12-24.31-5.58a145.33,145.33,0,0,0-15.62.11,46.32,46.32,0,0,0-11.22,1.9c-6.76,2.08-12.32,6.44-17.38,11.24-12.62,11.93-23,26.54-24.49,44.32-1.43,17.31,6.82,34,18.43,46.41,8.76,9.36,23.17,12.44,35.42,13.45,13.16,1.08,27.6-.17,39.62-6,24.51-11.87,27.7-44.84,22.63-68.42C184,107.5,178.46,95,168.62,86.24c-10.84-9.64-25.67-13.51-40-12.5-14,1-28.53,6.68-38.43,16.77C81,100,76,113.17,74.73,126.22S76.4,153.3,84.42,164s21,16.64,33.71,19.65c13.53,3.2,28.27,3.2,41.54-1.21A47.91,47.91,0,0,0,176.4,173a46.51,46.51,0,0,0,10.91-15.43c10.75-23.23,8.54-55.68-11.1-73.67C165,73.61,149.32,71,134.55,71.46a81.27,81.27,0,0,0-23.5,4.08A73,73,0,0,0,90.49,87.16c-12.55,9.71-22.81,23.79-24.08,40A41.33,41.33,0,0,0,67.27,139a84.26,84.26,0,0,0,3.9,11.75c2.44,6.57,5,13.21,9,19,9.83,14.33,28,18.9,44.56,18.35a103.46,103.46,0,0,0,27.88-4.65,55.61,55.61,0,0,0,18.64-10.26c10.83-9.06,17.16-22.33,19.33-36.11a72.1,72.1,0,0,0,.2-22.14,36.79,36.79,0,0,0-7.84-17.3c-8.27-10.22-21.34-15.67-34-18-13.5-2.52-27.87-1.68-40.68,3.43a54.71,54.71,0,0,0-29,27,68.23,68.23,0,0,0-4.6,45.16c2.95,11.66,10.31,21.32,20.08,28.13A57,57,0,0,0,110.05,191c4.68,1.47,9.94,2.09,14.54,0,.76-.33.1-1.45-.66-1.11-6.73,3-14.91-.19-21-3.27a55.83,55.83,0,0,1-17.31-13.21c-11.51-13.36-13.38-32-9.91-48.77C78.58,110.75,86.21,98.11,98,90s26.54-11.06,40.7-10.3c13.42.72,27.46,4.74,37.93,13.44a37.11,37.11,0,0,1,11.28,15.85c2.52,7,2.57,14.81,2.05,22.13-1,14.5-6.6,28.72-17.14,38.93-12.41,12-30.16,15.82-46.88,16.72-10.24.56-20.63-.84-29.95-5.28a37.92,37.92,0,0,1-16-14.4c-3.89-6.26-6.28-13.36-8.82-20.24a52.48,52.48,0,0,1-3.29-12.42,41,41,0,0,1,.56-12.21c3.24-16.69,16.07-30.22,30.05-39a65.58,65.58,0,0,1,21.95-8.81,88,88,0,0,1,25.25-1.33c7.75.69,15.55,2.52,22.34,6.41a44.72,44.72,0,0,1,14.65,13.89c7.64,11.35,10.33,25.54,9.54,39-.76,13.05-5,27.11-13.92,37-9.34,10.34-23.75,14.49-37.26,15.15a78.47,78.47,0,0,1-41.26-9.19A44.69,44.69,0,0,1,84.6,162.06a48.78,48.78,0,0,1-7.72-18.51,62,62,0,0,1,5.86-40.4A48.53,48.53,0,0,1,95.18,87.77a59.34,59.34,0,0,1,20.09-10.26C129.54,73.2,145.57,74,158.84,81c12.55,6.66,20.33,18.54,24.58,31.77a85.15,85.15,0,0,1,2.85,40.89c-2.34,12.77-8.54,25.22-19.88,32.21-5.31,3.28-11.51,5.06-17.6,6.23a91,91,0,0,1-21.68,1.37c-12.79-.64-27.88-3.62-37.13-13.24-12.33-12.83-20.22-30.76-17.7-48.7,2.5-17.77,14.54-32.76,27.94-43.94a37.86,37.86,0,0,1,20-8.72,111.82,111.82,0,0,1,14.76-.56,92,92,0,0,1,16,1.5,42.69,42.69,0,0,1,19.5,9,47.6,47.6,0,0,1,11.87,15.52c6.19,12.38,8.13,26.7,8.16,40.4,0,6.68-.16,13.66-2,20.11a35.78,35.78,0,0,1-9.81,15.87c-9.41,9-22.7,13-35.27,14.83a117.28,117.28,0,0,1-19.91,1.1,68.32,68.32,0,0,1-21-3.35C86.76,187.81,73,175.91,64.84,161.52a52.5,52.5,0,0,1-7-23.28,47.83,47.83,0,0,1,4.65-22.16c6.55-14.21,18.7-25.48,32-33.39a90.2,90.2,0,0,1,21.21-9.21,76.17,76.17,0,0,1,23-2.69,70.73,70.73,0,0,1,26.44,5.43,44,44,0,0,1,19.63,17c4.76,7.5,7.51,16.12,9.6,24.7a75.12,75.12,0,0,1,2.28,24,61.61,61.61,0,0,1-19,39.4A65.07,65.07,0,0,1,136.32,199c-15.19.68-30.66-3.79-43.61-11.61s-23.82-20-27-35.23c-3.32-15.94,2.63-32.33,12-45.1C87.44,94,101.37,84,117.2,80a55.59,55.59,0,0,1,44.23,7.31c14.11,9.35,21.88,24.46,26.43,40.33,2.19,7.63,3.37,15.68,1.91,23.56-1.55,8.37-6.33,15.54-12.34,21.41-12.64,12.35-29.16,21.58-47.17,21.67-17.1.08-33.18-8.06-45.7-19.25C73,164.76,62.41,150.32,61.89,134.3c-.25-7.43,2.45-14.09,6.13-20.4A94.11,94.11,0,0,1,81.58,96.24c10.08-10.47,23.69-20.39,38.75-21a29.27,29.27,0,0,1,14,3c.75.36,1.4-.76.65-1.12" transform="translate(0 0)"/><path class="cls-3" d="M164.55,35.8q-5.06,18.81-10.08,37.62c-.21.79,3.39,2.28,3.6,1.49q5.06-18.81,10.08-37.62c.22-.8-3.39-2.29-3.6-1.49" transform="translate(0 0)"/><path class="cls-3" d="M184.55,166.62c12.65,13.27,26.3,22.85,40,28,1.34.51,1.53-2.56.18-3.07-13.52-5.11-27-14.5-39.45-27.62-1.27-1.33-2,1.35-.71,2.67" transform="translate(0 0)"/><path class="cls-3" d="M133.92,196.51a110.15,110.15,0,0,1,2.88,21.72c.31,7.46.19,15.13-2.23,23.17-.35,1.17,3.39.52,3.73-.64,2.41-8,2.51-15.67,2.26-23.13a108.34,108.34,0,0,0-2.9-22.22c-.25-1-4,.08-3.74,1.1" transform="translate(0 0)"/><path class="cls-3" d="M81.43,178.71A352.65,352.65,0,0,1,48.6,208.14c-1.2,1,.2,3.42,1.4,2.47a353.86,353.86,0,0,0,32.82-29.42c1.11-1.13-.27-3.61-1.39-2.48" transform="translate(0 0)"/><path class="cls-3" d="M66,124.68c-14.81-.41-29.68-1.36-44.59-.72-1.05,0-1.2,1.45-.14,1.41,14.9-.64,29.77.32,44.59.72,1,0,1.19-1.38.14-1.41" transform="translate(0 0)"/><path class="cls-3" d="M100.09,87Q85.42,66.58,70.73,46.2c-.87-1.22-3.77-1-2.89.25Q82.53,66.83,97.2,87.21c.88,1.22,3.78,1,2.89-.25" transform="translate(0 0)"/><path class="cls-4" d="M113.92,175.57l13.74-5.75,1.62-19.43-17.17-13.17-18.33,6.69-2,14.69a46.1,46.1,0,0,0,9.77,10.18h0a46.35,46.35,0,0,0,12.38,6.78M83.44,130.45l10,12.24L111.79,136,119,115.65l-11.21-14.4-15.15,3.09a46.08,46.08,0,0,0-9.18,26.11M117.12,87.5l-8.31,13L120,115l21.54.56,10.62-13.86-7.77-13.53a46.4,46.4,0,0,0-20.78-2,45.59,45.59,0,0,0-6.53,1.35m51.16,18.93-15.08-4-10.62,13.85L148.71,137l16.9,7L176,132.63a47.68,47.68,0,0,0-.4-6.65,46.26,46.26,0,0,0-7.32-19.55m-2.19,54.24-.9-15.57-16.87-6.95-17.77,12.23-1.63,19.44,14.35,6.49a46,46,0,0,0,22.82-15.64" transform="translate(0 0)"/><path class="cls-3" d="M52.4,44.21c0-5,2.75-6.77,5.14-8.35,1.88-1.27,3.56-2.39,3.56-4.78,0-2.69-1.83-4.22-4.47-4.22a4.2,4.2,0,0,0-4.53,4.37v.41H46.35V31c0-6,4.43-9.82,10.43-9.82S67.21,24.93,67.21,31c0,5.29-2.9,7-5.39,8.44-2,1.17-3.77,2.19-3.77,4.74v.51H52.4Zm-1.12,7.58a4,4,0,1,1,4,4,3.93,3.93,0,0,1-4-4" transform="translate(0 0)"/><path class="cls-3" d="M167.38,23c0-5,2.74-6.76,5.13-8.34,1.89-1.27,3.57-2.39,3.57-4.78,0-2.7-1.84-4.22-4.48-4.22A4.2,4.2,0,0,0,167.07,10v.41h-5.75V9.82c0-6,4.43-9.82,10.43-9.82s10.43,3.71,10.43,9.82c0,5.29-2.9,7-5.39,8.44-2,1.17-3.77,2.19-3.77,4.73v.51h-5.64Zm-1.12,7.58a4,4,0,1,1,4,4,3.94,3.94,0,0,1-4-4" transform="translate(0 0)"/><path class="cls-3" d="M242.09,96.71c0-5,2.75-6.76,5.14-8.34,1.88-1.27,3.56-2.39,3.56-4.78,0-2.7-1.83-4.23-4.47-4.23a4.21,4.21,0,0,0-4.53,4.38v.41H236v-.61c0-6,4.43-9.82,10.43-9.82s10.43,3.71,10.43,9.82c0,5.29-2.9,7-5.39,8.44-2,1.17-3.77,2.19-3.77,4.73v.51h-5.65ZM241,104.29a4,4,0,1,1,4,4,3.93,3.93,0,0,1-4-4" transform="translate(0 0)"/><path class="cls-3" d="M6.05,128.12c0-5,2.75-6.76,5.14-8.34,1.88-1.27,3.56-2.39,3.56-4.78,0-2.7-1.83-4.22-4.47-4.22a4.2,4.2,0,0,0-4.53,4.37v.41H0V115c0-6,4.43-9.82,10.43-9.82s10.43,3.71,10.43,9.82c0,5.29-2.9,7-5.39,8.44-2,1.17-3.77,2.19-3.77,4.73v.51H6.05ZM4.93,135.7a3.93,3.93,0,0,1,4-4,4,4,0,1,1,0,8,3.93,3.93,0,0,1-4-4" transform="translate(0 0)"/><path class="cls-3" d="M29.56,219.12c0-5,2.75-6.77,5.14-8.35,1.88-1.27,3.56-2.39,3.56-4.78,0-2.69-1.83-4.22-4.48-4.22a4.2,4.2,0,0,0-4.52,4.37v.41H23.51v-.61c0-6,4.42-9.82,10.43-9.82s10.42,3.72,10.42,9.82c0,5.29-2.9,7-5.39,8.44-2,1.17-3.76,2.19-3.76,4.74v.51H29.56Zm-1.12,7.58a4,4,0,1,1,4,4,3.93,3.93,0,0,1-4-4" transform="translate(0 0)"/><path class="cls-3" d="M132,266.82c0-5,2.75-6.76,5.14-8.34,1.88-1.27,3.56-2.39,3.56-4.78,0-2.7-1.83-4.23-4.48-4.23a4.21,4.21,0,0,0-4.53,4.38v.41H126v-.61c0-6,4.43-9.82,10.43-9.82s10.43,3.71,10.43,9.82c0,5.29-2.9,7-5.39,8.44-2,1.17-3.76,2.19-3.76,4.73v.51H132Zm-1.12,7.58a4,4,0,1,1,4,4,3.93,3.93,0,0,1-4-4" transform="translate(0 0)"/><path class="cls-3" d="M230.61,199.19c0-5,2.75-6.77,5.14-8.34,1.88-1.27,3.56-2.39,3.56-4.78,0-2.7-1.83-4.23-4.48-4.23a4.21,4.21,0,0,0-4.53,4.38v.4h-5.75V186c0-6,4.43-9.81,10.43-9.81s10.43,3.71,10.43,9.81c0,5.29-2.9,7-5.39,8.45-2,1.17-3.76,2.19-3.76,4.73v.51h-5.65Zm-1.12,7.58a4,4,0,1,1,4,4,3.93,3.93,0,0,1-4-4" transform="translate(0 0)"/></g></g></g></svg>