<svg xmlns="http://www.w3.org/2000/svg" xmlns:xlink="http://www.w3.org/1999/xlink" viewBox="0 0 108.66 108.66"><defs><style>.cls-1{fill:none;}.cls-2{clip-path:url(#clip-path);}.cls-3{fill:#94d600;}</style><clipPath id="clip-path" transform="translate(0 -3.09)"><polygon class="cls-1" points="0 2 114.03 0 114.03 109.75 0 111.75 0 2"/></clipPath></defs><g id="Слой_2" data-name="Слой 2"><g id="Слой_1-2" data-name="Слой 1"><g class="cls-2"><path d="M108.66,57.42A54.33,54.33,0,1,1,54.33,3.09a54.32,54.32,0,0,1,54.33,54.33" transform="translate(0 -3.09)"/><path class="cls-3" d="M71.62,90.58H37.05a15.87,15.87,0,0,1-11.23-4.65,15.89,15.89,0,0,1-3.4-5.05,15.68,15.68,0,0,1-1.25-6.17V40.14A15.69,15.69,0,0,1,22.42,34a16,16,0,0,1,3.4-5.05,15.87,15.87,0,0,1,11.23-4.65H71.62A15.87,15.87,0,0,1,87.49,40.14V74.71A15.86,15.86,0,0,1,71.62,90.58M37.05,27.71A12.44,12.44,0,0,0,24.62,40.14V74.71A12.43,12.43,0,0,0,37.05,87.13H71.62A12.44,12.44,0,0,0,84.05,74.71V40.14A12.44,12.44,0,0,0,71.62,27.71Z" transform="translate(0 -3.09)"/><path class="cls-3" d="M54.33,73.9a16.32,16.32,0,1,1,6.42-1.29,16.35,16.35,0,0,1-6.42,1.29m0-29.51a13,13,0,1,0,13,13,13,13,0,0,0-13-13" transform="translate(0 -3.09)"/><path class="cls-3" d="M76.86,38.43A3.84,3.84,0,1,1,73,34.59a3.84,3.84,0,0,1,3.84,3.84" transform="translate(0 -3.09)"/></g></g></g></svg>