<svg xmlns="http://www.w3.org/2000/svg" xmlns:xlink="http://www.w3.org/1999/xlink" viewBox="0 0 364.94 330.39"><defs><style>.cls-1,.cls-2,.cls-6{fill:none;}.cls-2{stroke:#54565a;}.cls-2,.cls-6{stroke-linecap:round;stroke-linejoin:round;stroke-width:2.08px;}.cls-3{clip-path:url(#clip-path);}.cls-4{fill:#54565a;}.cls-5{fill:#94d600;}.cls-6{stroke:#94d600;}.cls-7{fill:#fff;fill-rule:evenodd;}</style><clipPath id="clip-path" transform="translate(0 0)"><rect class="cls-1" width="364.93" height="330.39"/></clipPath></defs><g id="Слой_2" data-name="Слой 2"><g id="Слой_1-2" data-name="Слой 1"><rect class="cls-2" x="25.47" y="124.3" width="33.47" height="18.06"/><g class="cls-3"><path class="cls-2" d="M58.94,142.36H25.47a49,49,0,0,1-13.25,33.58,41.17,41.17,0,1,0,60.13.18A49.6,49.6,0,0,1,58.94,142.36Z" transform="translate(0 0)"/><path class="cls-2" d="M50.36,124.3H34.05v-.87a8.16,8.16,0,1,1,16.31,0Z" transform="translate(0 0)"/><rect class="cls-4" x="41.17" width="2.08" height="115.27"/><rect class="cls-2" x="306" y="124.3" width="33.47" height="18.06"/><path class="cls-2" d="M339.46,142.36H306a49,49,0,0,1-13.25,33.58,41.17,41.17,0,1,0,60.13.18A49.61,49.61,0,0,1,339.46,142.36Z" transform="translate(0 0)"/><path class="cls-2" d="M330.89,124.3H314.57v-.87a8.16,8.16,0,1,1,16.32,0Z" transform="translate(0 0)"/><rect class="cls-4" x="321.69" width="2.08" height="115.27"/><path class="cls-5" d="M207.39,164.13H163.75a63.9,63.9,0,0,1-17.28,43.79,53.69,53.69,0,1,0,78.41.23,64.7,64.7,0,0,1-17.49-44" transform="translate(0 0)"/><path class="cls-6" d="M207.39,164.13H163.75a63.9,63.9,0,0,1-17.28,43.79,53.69,53.69,0,1,0,78.41.23A64.7,64.7,0,0,1,207.39,164.13Z" transform="translate(0 0)"/><path class="cls-2" d="M196.21,140.57H174.93v-1.13a10.64,10.64,0,0,1,21.28,0Z" transform="translate(0 0)"/><rect class="cls-2" x="163.75" y="140.57" width="43.64" height="23.55"/><path class="cls-5" d="M114.81,241.27H96.45a1,1,0,0,1,0-2.08h18.36a1,1,0,1,1,0,2.08" transform="translate(0 0)"/><path class="cls-5" d="M185.57,330.39a1,1,0,0,1-1-1V311a1,1,0,1,1,2.08,0v18.36a1,1,0,0,1-1,1" transform="translate(0 0)"/><path class="cls-5" d="M151.65,323.54a1.09,1.09,0,0,1-.39-.08,1,1,0,0,1-.56-1.35l7-17a1,1,0,1,1,1.92.79l-7,17a1,1,0,0,1-1,.64" transform="translate(0 0)"/><path class="cls-5" d="M103.8,275.42a1,1,0,0,1-.4-2l17-7a1.05,1.05,0,0,1,1.36.57,1,1,0,0,1-.56,1.35l-17,7a1.14,1.14,0,0,1-.4.08" transform="translate(0 0)"/><path class="cls-5" d="M219.55,323.86a1,1,0,0,1-1-.64l-7-17a1,1,0,0,1,1.92-.79l7,17a1.05,1.05,0,0,1-.57,1.36,1.07,1.07,0,0,1-.39.07" transform="translate(0 0)"/><path class="cls-5" d="M248.44,304.84a1,1,0,0,1-.73-.31l-13-13a1,1,0,0,1,0-1.47,1.05,1.05,0,0,1,1.47,0l13,13a1.05,1.05,0,0,1,0,1.47,1.07,1.07,0,0,1-.74.31" transform="translate(0 0)"/><path class="cls-5" d="M267.86,276.2a1.14,1.14,0,0,1-.4-.08l-17-7a1,1,0,0,1-.56-1.35,1,1,0,0,1,1.36-.56l17,7a1,1,0,0,1-.4,2" transform="translate(0 0)"/><path class="cls-5" d="M122.74,304.73A1,1,0,0,1,122,303l13-13a1,1,0,0,1,1.47,0,1,1,0,0,1,0,1.46l-13,13a1,1,0,0,1-.73.31" transform="translate(0 0)"/><path class="cls-5" d="M273.8,241.27H255.44a1,1,0,1,1,0-2.08H273.8a1,1,0,0,1,0,2.08" transform="translate(0 0)"/><rect class="cls-4" x="184.53" width="2.07" height="128.8"/><path class="cls-7" d="M169.3,286.85,183,281.1l1.63-19.44-17.18-13.17-18.32,6.69-2,14.69a46.15,46.15,0,0,0,9.77,10.19h0a46.06,46.06,0,0,0,12.37,6.79m-30.47-45.13,10,12.24,18.33-6.68,7.19-20.35-11.21-14.41L148,215.62a46,46,0,0,0-9.17,26.1m33.67-42.95-8.3,13,11.23,14.43,21.53.55L207.58,213l-7.76-13.53a46.46,46.46,0,0,0-20.79-2,47.27,47.27,0,0,0-6.53,1.34m51.17,18.94-15.08-4L198,227.57l6.13,20.66,16.9,7,10.39-11.28a46.26,46.26,0,0,0-7.71-26.2M221.48,272l-.9-15.57-16.88-6.95-17.77,12.23-1.62,19.44,14.34,6.49A46.12,46.12,0,0,0,221.48,272" transform="translate(0 0)"/></g></g></g></svg>