<svg xmlns="http://www.w3.org/2000/svg" xmlns:xlink="http://www.w3.org/1999/xlink" viewBox="0 0 697.34 88.42"><defs><style>.cls-1{fill:none;}.cls-2{fill:#54565a;}.cls-3{clip-path:url(#clip-path);}.cls-4{fill:#9ea1a2;}</style><clipPath id="clip-path" transform="translate(0 0)"><rect class="cls-1" width="697.34" height="88.42"/></clipPath></defs><g id="Слой_2" data-name="Слой 2"><g id="Слой_1-2" data-name="Слой 1"><polygon class="cls-2" points="48.37 1.69 13.26 40.44 13.26 1.69 0 1.69 0 86.73 13.26 86.73 13.26 47.07 49.28 86.73 66.44 86.73 25.75 43.56 65.14 1.69 48.37 1.69"/><rect class="cls-2" x="77.63" y="1.69" width="13.26" height="85.04"/><g class="cls-3"><path class="cls-2" d="M108.57,1.69h30.3c29.64,0,45.25,17,45.25,42.52s-15.61,42.52-45.25,42.52h-30.3Zm30.3,72.81c21.71,0,31.85-12,31.85-30.29s-10.14-30.3-31.85-30.3h-17V74.5Z" transform="translate(0 0)"/><path class="cls-2" d="M192.83,62.41H206c.26,8.32,6.63,13.78,18.21,13.78,11.83,0,18.46-5.46,18.46-13.78,0-9-9.1-10.4-19.37-12.22-13.27-2.34-28.48-4.94-28.48-24C194.78,10.66,206.48,0,224.3,0c17.42,0,29.12,10.14,29.64,25.36H241.33c-.39-7.55-6.24-13.14-16.77-13.14-10.93,0-17,5.72-17,13.53,0,9,9.23,10.4,19.51,12.22,13.39,2.34,28.6,4.94,28.6,24.05,0,16.26-12.48,26.4-31.46,26.4-18.6,0-30.95-9.89-31.34-26" transform="translate(0 0)"/><path class="cls-4" d="M267,53.18V1.69h13.26V53.18c0,14.3,7.67,23,22.62,23s22.63-8.71,22.63-23V1.69h12.87V53.18c0,21.45-12.61,35.24-35.5,35.24S267,74.76,267,53.18" transform="translate(0 0)"/><path class="cls-4" d="M351.72,35.24C351.72,13.65,364.6,0,387.61,0s36,13.65,36,35.24V86.73H410.36V35.24c0-14.31-7.8-23-22.75-23S365,20.93,365,35.24V86.73H351.72Z" transform="translate(0 0)"/><rect class="cls-4" x="439.36" y="1.69" width="13.26" height="85.04"/><polygon class="cls-4" points="492.02 13.91 465.11 13.91 465.11 1.69 532.33 1.69 532.33 13.91 505.29 13.91 505.29 86.73 492.02 86.73 492.02 13.91"/><polygon class="cls-4" points="544.55 1.69 607.1 1.69 607.1 13.91 557.82 13.91 557.82 37.32 599.55 37.32 599.55 49.54 557.82 49.54 557.82 74.5 607.1 74.5 607.1 86.73 544.55 86.73 544.55 1.69"/><path class="cls-4" d="M621.79,1.69h30.3c29.64,0,45.25,17,45.25,42.52s-15.61,42.52-45.25,42.52h-30.3Zm30.3,72.81c21.71,0,31.85-12,31.85-30.29s-10.14-30.3-31.85-30.3h-17V74.5Z" transform="translate(0 0)"/></g></g></g></svg>