<svg xmlns="http://www.w3.org/2000/svg" viewBox="0 0 546.89 189.2"><defs><style>.cls-1{fill:#414042;}.cls-2{fill:#939598;}.cls-3,.cls-5,.cls-6,.cls-7,.cls-8,.cls-9{fill:none;stroke-miterlimit:10;}.cls-3{stroke:#414042;stroke-width:0.77px;}.cls-4{fill:#fff;fill-rule:evenodd;}.cls-5,.cls-6,.cls-7,.cls-8,.cls-9{stroke:#73c92d;}.cls-5{stroke-width:1.16px;}.cls-6{stroke-width:1.12px;}.cls-7{stroke-width:0.95px;}.cls-8{stroke-width:0.99px;}.cls-9{stroke-width:1px;}</style></defs><g id="Слой_2" data-name="Слой 2"><g id="Layer_1" data-name="Layer 1"><path class="cls-1" d="M0,121.19H10.4v30.39l27.53-30.39H51.09L20.19,154l31.92,33.86H38.65L10.4,156.78v31.1H0Z"/><path class="cls-1" d="M60.88,121.19h10.4v66.69H60.88Z"/><path class="cls-1" d="M85.15,121.19h23.76c23.25,0,35.48,13.36,35.48,33.34s-12.23,33.35-35.48,33.35H85.15Zm23.76,57.1c17,0,25-9.38,25-23.76s-7.95-23.76-25-23.76H95.55v47.52Z"/><path class="cls-1" d="M151.23,168.81h10.3c.2,6.53,5.2,10.81,14.27,10.81,9.28,0,14.48-4.28,14.48-10.81,0-7-7.14-8.16-15.19-9.59-10.4-1.83-22.33-3.87-22.33-18.86,0-12.14,9.17-20.5,23.15-20.5,13.66,0,22.84,8,23.24,19.89h-9.89c-.3-5.92-4.89-10.3-13.15-10.3-8.57,0-13.36,4.48-13.36,10.6,0,7,7.24,8.16,15.3,9.59,10.5,1.83,22.43,3.87,22.43,18.86,0,12.75-9.79,20.7-24.68,20.7C161.22,189.2,151.53,181.45,151.23,168.81Z"/><path class="cls-2" d="M209.35,161.57V121.19h10.4v40.38c0,11.22,6,18.05,17.75,18.05s17.74-6.83,17.74-18.05V121.19h10.1v40.38c0,16.82-9.9,27.63-27.84,27.63S209.35,178.5,209.35,161.57Z"/><path class="cls-2" d="M275.84,147.5c0-16.93,10.1-27.64,28.15-27.64s28.24,10.71,28.24,27.64v40.38h-10.4V147.5c0-11.22-6.12-18.05-17.84-18.05s-17.75,6.83-17.75,18.05v40.38h-10.4Z"/><path class="cls-2" d="M344.57,121.19H355v66.69h-10.4Z"/><path class="cls-2" d="M385.87,130.77H364.76v-9.58h52.72v9.58H396.27v57.11h-10.4Z"/><path class="cls-2" d="M427.07,121.19h49.05v9.58H437.47v18.36h32.74v9.58H437.47v19.58h38.65v9.59H427.07Z"/><path class="cls-2" d="M487.64,121.19H511.4c23.25,0,35.49,13.36,35.49,33.34s-12.24,33.35-35.49,33.35H487.64Zm23.76,57.1c17,0,25-9.38,25-23.76s-8-23.76-25-23.76H498v47.52Z"/><ellipse class="cls-1" cx="276.51" cy="35.72" rx="28.71" ry="29.2" transform="translate(124.84 269.66) rotate(-64.4)"/><path class="cls-3" d="M363.87,40.87a7.23,7.23,0,0,1,4.57-1.07c2.19.45,2.95,3,2.95,3"/><path class="cls-3" d="M350.8,38.87A7.24,7.24,0,0,0,346.5,37c-2.23,0-3.45,2.41-3.45,2.41"/><path class="cls-3" d="M346.47,51s.55,6.59,8.33,7.68A11.13,11.13,0,0,0,366,53.53"/><path class="cls-3" d="M329.83,37.71c2.74-10.79,21.44-28.73,34.09-25s21.19,20.39,16,37.47-21.18,23.66-34.64,20.7C332.47,68.12,326.7,50,329.83,37.71Z"/><path class="cls-3" d="M330.62,41.42c2.75-10.79,21.45-28.73,34.1-25s21.18,20.39,16,37.47-21.18,23.66-34.63,20.7C333.26,71.83,327.49,53.74,330.62,41.42Z"/><path class="cls-3" d="M341.8,66.45c-9.27-6.17-20-29.76-12.24-40.44s26.25-13.24,40.65-2.66,15.3,27.81,8.05,39.53C371.37,74,352.38,73.48,341.8,66.45Z"/><path class="cls-3" d="M345.56,66.93c-9.27-6.17-20-29.76-12.24-40.44S359.57,13.26,374,23.83s15.3,27.81,8,39.53C375.13,74.51,356.14,74,345.56,66.93Z"/><path class="cls-3" d="M335.34,31.86c6.58-9,30.63-18.63,41-10.38s12,26.83.8,40.72-28.48,14-39.86,6.24C326.41,61,327.83,42.1,335.34,31.86Z"/><path class="cls-3" d="M334.69,35.59c6.58-9,30.63-18.62,40.95-10.38s12,26.83.8,40.73S348,80,336.58,72.18C325.76,64.78,327.17,45.84,334.69,35.59Z"/><path class="cls-3" d="M383.51,43.47c.44,11.13-12.37,33.65-25.57,33.62s-26.12-13.5-26-31.36S345.51,17,359.25,16C372.32,15.07,383,30.77,383.51,43.47Z"/><path class="cls-3" d="M381.7,40.14c.44,11.13-12.38,33.65-25.58,33.63S330,60.26,330.13,42.4s13.56-28.71,27.3-29.7C370.51,11.75,381.19,27.45,381.7,40.14Z"/><path class="cls-3" d="M349.1,22.31c10.62-3.35,35.72,3.1,39.16,15.85s-6.17,28.74-23.43,33.32S333.57,65.93,329,52.93C324.64,40.57,337,26.13,349.1,22.31Z"/><path class="cls-3" d="M346.37,24.94C357,21.59,382.08,28,385.53,40.78s-6.17,28.75-23.44,33.32-31.26-5.54-35.83-18.54C321.91,43.2,334.25,28.76,346.37,24.94Z"/><path class="cls-3" d="M328.89,40.2c2.75-10.79,21.44-28.73,34.09-25s21.19,20.39,16,37.47-21.18,23.66-34.64,20.7C331.53,70.61,325.76,52.52,328.89,40.2Z"/><path class="cls-3" d="M329.68,43.91c2.75-10.79,21.45-28.73,34.1-24.95s21.19,20.39,16,37.47-21.17,23.66-34.63,20.7C332.33,74.32,326.55,56.23,329.68,43.91Z"/><path class="cls-3" d="M329.88,54.31s0,13.22-6.36,17.85c-1,.74-2.36,1.9-3.16,2.53-4.61,3.63-4.09,6.55-3.25,7.48,1.4,1.57,4,1.67,5-.6,1.12-2.7-1.63-5.8-1.63-5.8"/><path class="cls-3" d="M347.2,72.79s-1.73,9.95-1.94,15.35-.44,16.64-.44,16.64l-10.15.21s1.29-3.45,4.32-4.1a23.74,23.74,0,0,1,4.32-.65"/><path class="cls-3" d="M360.66,72.48s1.73,9.94,1.95,15.34.43,16.64.43,16.64l10.16.22s-1.3-3.46-4.32-4.11a23.88,23.88,0,0,0-4.33-.65"/><path class="cls-3" d="M386.45,47.73s2.28,9.83,1.6,16.92a69.87,69.87,0,0,1-3.43,14.63s1.6,1.83,1.37,3.43A3,3,0,0,1,382.33,85,2.87,2.87,0,0,1,381,80.65,5.42,5.42,0,0,1,383,79.28"/><path class="cls-3" d="M201.18,39.64a7.18,7.18,0,0,1,4.28-1.91c2.24,0,3.47,2.39,3.47,2.39"/><path class="cls-3" d="M188,40.12a7.19,7.19,0,0,0-4.58-1c-2.19.46-2.94,3-2.94,3"/><path class="cls-3" d="M186,52.82s1.77,6.36,9.62,6a11.15,11.15,0,0,0,10.07-7.13"/><path class="cls-3" d="M168,40.9c1.44-11,17.86-31.08,30.87-28.84s23.47,17.72,20.34,35.3S201,73.37,187.31,72C174.27,70.77,166.38,53.5,168,40.9Z"/><path class="cls-3" d="M169.25,44.49c1.44-11,17.86-31.09,30.87-28.84S223.59,33.36,220.46,51s-18.2,26-31.92,24.68C175.5,74.36,167.61,57.09,169.25,44.49Z"/><path class="cls-3" d="M183.33,68c-9.94-5-23.41-27.15-17-38.68s24.49-16.28,40-7.5S224.9,47.61,219.1,60.11C213.59,72,194.67,73.72,183.33,68Z"/><path class="cls-3" d="M187.12,68c-9.94-5-23.41-27.16-17-38.69s24.49-16.27,40.05-7.49S228.7,47.64,222.9,60.14C217.38,72,198.47,73.75,187.12,68Z"/><path class="cls-3" d="M172.79,34.43c5.46-9.7,28.19-22.14,39.42-15.19s15.14,25.2,5.65,40.34-26.61,17.31-38.83,11C167.41,64.47,166.55,45.5,172.79,34.43Z"/><path class="cls-3" d="M172.59,38.22c5.46-9.7,28.19-22.15,39.42-15.2s15.13,25.21,5.65,40.35-26.61,17.31-38.83,10.94C167.2,68.26,166.35,49.29,172.59,38.22Z"/><path class="cls-3" d="M222,40.21c1.77,11-8.27,34.89-21.38,36.44s-27.54-10.3-29.55-28,10.05-30.12,23.57-32.75C207.51,13.36,220,27.67,222,40.21Z"/><path class="cls-3" d="M219.8,37.13c1.77,11-8.27,34.88-21.38,36.43s-27.54-10.3-29.55-28,10-30.12,23.57-32.75C205.31,10.27,217.79,24.58,219.8,37.13Z"/><path class="cls-3" d="M185.31,23.31c10.15-4.59,35.84-1.18,40.78,11.06s-2.7,29.28-19.3,35.88S175.09,68.47,169,56.11C163.21,44.36,173.74,28.55,185.31,23.31Z"/><path class="cls-3" d="M182.91,26.24c10.14-4.59,35.83-1.18,40.77,11.07S221,66.58,204.39,73.18s-31.7-1.78-37.79-14.13C160.8,47.29,171.34,31.48,182.91,26.24Z"/><path class="cls-3" d="M167.38,43.48c1.44-11,17.87-31.08,30.88-28.83s23.47,17.71,20.33,35.29-18.2,26-31.91,24.68C173.63,73.36,165.74,56.08,167.38,43.48Z"/><path class="cls-3" d="M168.61,47.07c1.44-11,17.87-31.08,30.88-28.83S223,36,219.82,53.53s-18.2,26-31.91,24.68C174.86,77,167,59.67,168.61,47.07Z"/><path class="cls-3" d="M186,72.79s-1.73,9.95-1.94,15.35-.44,16.64-.44,16.64l-10.15.21s1.29-3.45,4.32-4.1a23.74,23.74,0,0,1,4.32-.65"/><path class="cls-3" d="M199.5,72.48s1.73,9.94,1.95,15.34.43,16.64.43,16.64l10.16.22s-1.3-3.46-4.32-4.11a23.88,23.88,0,0,0-4.33-.65"/><path class="cls-3" d="M223.29,54.69s.52,13.1,6.84,17.73c1,.74,1.84,1.5,2.64,2.13,4.6,3.63,4.24,6.45,3.41,7.38-1.4,1.57-4.23,2.27-5.36-.42S232.54,76,232.54,76"/><path class="cls-3" d="M166.51,48s-4.74,8.91-5.9,15.93a69.7,69.7,0,0,0-.45,15s-2,1.35-2.21,3a3,3,0,0,0,3,3.15,2.87,2.87,0,0,0,2.44-3.84,5.4,5.4,0,0,0-1.64-1.86"/><path class="cls-4" d="M268.67,57.46l7-3,.84-9.94-8.8-6.75-9.38,3.43-1,7.52a23.73,23.73,0,0,0,5,5.21h0a23.56,23.56,0,0,0,6.33,3.48Zm-15.6-23.1,5.13,6.26,9.38-3.42,3.68-10.41-5.74-7.38L257.77,21a23.53,23.53,0,0,0-4.7,13.36Zm17.24-22-4.25,6.68,5.75,7.39,11,.28,5.44-7.09-4-6.93a23.71,23.71,0,0,0-14-.33Zm26.19,9.69-7.72-2-5.44,7.09,3.14,10.58,8.65,3.56,5.32-5.77a24.29,24.29,0,0,0-.2-3.41,23.72,23.72,0,0,0-3.75-10Zm-1.12,27.77-.46-8-8.64-3.56-9.1,6.26-.83,9.95,7.34,3.33a23.62,23.62,0,0,0,11.69-8Z"/><path class="cls-5" d="M268.74,70s-1.88,10.79-2.11,16.66-.47,18.08-.47,18.08l-11,.23s1.41-3.75,4.7-4.46a26.11,26.11,0,0,1,4.69-.7"/><path class="cls-5" d="M283.36,69.67s1.88,10.8,2.12,16.67.47,18.08.47,18.08l11,.23s-1.41-3.76-4.69-4.46a26.13,26.13,0,0,0-4.7-.7"/><path class="cls-5" d="M245.36,52.05s-.89,14.64-7.75,19.66c-1.1.81-2,1.64-2.86,2.32-5,3.94-4.62,7-3.71,8,1.52,1.7,4.41,2.07,5.64-.85s-1.56-5.85-1.56-5.85"/><path class="cls-6" d="M308.57,52.4s.74,14.52,7.21,19.45c1,.79,1.89,1.61,2.7,2.28,4.72,3.88,4.33,6.92,3.46,7.93-1.46,1.7-4.2,2.09-5.35-.8s1.52-5.81,1.52-5.81"/><path class="cls-7" d="M258.86,5c10.84-7.29,41.5-6.66,49.86,8.18s3.08,37.58-14.85,48.35-37.31,2.3-47-12.52C237.58,34.93,246.49,13.34,258.86,5Z"/><path class="cls-7" d="M256.69,9.09c10.84-7.29,41.49-6.66,49.85,8.19s3.09,37.58-14.85,48.34-37.3,2.31-47-12.52C235.41,39,244.31,17.41,256.69,9.09Z"/><path class="cls-8" d="M260.84,64.75C248.05,58,232.39,30.35,242.27,16.9S276.89-1,296.8,10.71s22,32.41,12.89,47.07C301,71.72,275.44,72.46,260.84,64.75Z"/><path class="cls-7" d="M268.33,4.69C281.2,2.5,310.19,15.48,313,32.25s-10.12,35.15-30.95,37.6-36.35-13-40.47-30.33C237.67,23.06,253.66,7.19,268.33,4.69Z"/><path class="cls-7" d="M302.35,58.69C294.1,69.15,265.13,78,253.36,66s-12.84-35.8,1.16-51.86S289,.44,302,11.94C314.43,22.88,311.77,46.74,302.35,58.69Z"/><path class="cls-7" d="M299.45,62.37c-10.61,7.65-41,7.82-49.5-6.94s-3.68-37.86,13.9-49.21,36.9-3.32,46.77,11.39C320,31.6,311.56,53.64,299.45,62.37Z"/><path class="cls-9" d="M289.6,4.59c13.11,6.11,31.45,33.93,23.5,48.79S281.85,74.78,261.29,64s-25-32.33-17.94-48.41C250.09.33,274.63-2.38,289.6,4.59Z"/><path class="cls-7" d="M256.09,6.43c10.84-7.29,41.49-6.66,49.85,8.18S309,52.19,291.09,63s-37.3,2.3-47-12.52C234.81,36.34,243.71,14.75,256.09,6.43Z"/><path class="cls-7" d="M253.91,10.5c10.84-7.29,41.5-6.66,49.86,8.18S306.85,56.26,288.92,67s-37.31,2.3-47-12.52C232.63,40.41,241.54,18.82,253.91,10.5Z"/></g></g></svg>