<svg xmlns="http://www.w3.org/2000/svg" viewBox="0 0 62.8 58.83"><defs><style>.cls-1{fill:#94d600;}</style></defs><g id="Слой_2" data-name="Слой 2"><g id="Слой_1-2" data-name="Слой 1"><path class="cls-1" d="M30.13,21.1c7-3,15.12-1.58,21.54,2.28,6,3.62,11.31,10,11.12,17.33-.21,8.67-7.63,15.56-15.69,17.49a21.69,21.69,0,0,1-13.34-1,21,21,0,0,1-9.92-8.88C19.28,40.5,19.55,29,27.1,23a13.94,13.94,0,0,1,3-1.88,1.73,1.73,0,0,1,2.29.6,1.69,1.69,0,0,1-.6,2.29c-7.69,3.42-9.16,13.34-6.24,20.41a18.43,18.43,0,0,0,7.3,8.68,17.7,17.7,0,0,0,11,2.3c7.25-.76,14-6,15.38-13.17,0-.09,0-.17,0-.26,0,.08,0,.28,0-.06,0-.17,0-.34,0-.51a11.63,11.63,0,0,0,0-1.18,9.77,9.77,0,0,0-.06-1.08c0-.08-.07-.59,0-.3,0-.19-.06-.38-.09-.57a13.45,13.45,0,0,0-1.45-4.07,20.31,20.31,0,0,0-6-6.7A24.49,24.49,0,0,0,43,23.41a18.51,18.51,0,0,0-4.69-.61,15.64,15.64,0,0,0-4.5.53c-.37.09-.74.2-1.11.32l-.5.18-.42.16a1.73,1.73,0,0,1-2.29-.6,1.68,1.68,0,0,1,.6-2.29"/><path class="cls-1" d="M7.36.64A10.65,10.65,0,0,1,18.67,3.31,13.3,13.3,0,0,1,22.44,13.8a10.07,10.07,0,0,1-8.31,8.8c-5.4.94-11.24-1.82-13.35-7-2.36-5.76.88-12.74,6.58-15A1.68,1.68,0,0,1,9.42,1.81,1.71,1.71,0,0,1,8.25,3.87C4.68,5.26,2.7,9.79,3.56,13.36c1,4.05,5.23,6.37,9.2,6.07a7.76,7.76,0,0,0,2.57-.7,7.34,7.34,0,0,0,1.15-.67l.26-.18s-.17.14,0,0,.35-.3.51-.46.28-.28.42-.43l.24-.29c-.08.11.2-.29.24-.36a6.22,6.22,0,0,0,.32-.56,3.46,3.46,0,0,0,.16-.32l.15-.39a8.48,8.48,0,0,0,.29-1.1,2.74,2.74,0,0,0,.05-.28c0-.25,0,.28,0,0s0-.33,0-.5q0-.62,0-1.23c0-.17,0-.34,0-.51,0-.32,0-.05,0,0,0-.09,0-.19,0-.29-.07-.38-.16-.77-.26-1.15s-.24-.76-.38-1.13.08.14-.09-.22l-.3-.6c-.17-.33-.36-.66-.56-1s-.23-.33-.34-.49L17,6.47c.21.27-.09-.11-.11-.13A10.64,10.64,0,0,0,16,5.42c-.16-.15-.32-.3-.49-.44l-.23-.19c.19.15,0,0-.07,0a10.36,10.36,0,0,0-1.06-.65c-.1,0-.7-.34-.39-.2a5.2,5.2,0,0,0-.55-.21A9.35,9.35,0,0,0,12,3.36h0l-.38,0c-.23,0-.46,0-.69,0l-.63,0c-.34,0-.11,0,0,0l-.4.07a9.68,9.68,0,0,0-1.57.45,1.68,1.68,0,0,1-2-1.17A1.7,1.7,0,0,1,7.36.64"/></g></g></svg>