<svg xmlns="http://www.w3.org/2000/svg" viewBox="0 0 108.66 108.66"><defs><style>.cls-1{fill:#fff;}.cls-2{fill:#94d600;}</style></defs><g id="Слой_2" data-name="Слой 2"><g id="Слой_1-2" data-name="Слой 1"><path d="M108.66,54.33A54.33,54.33,0,1,1,54.33,0a54.32,54.32,0,0,1,54.33,54.33"/><path class="cls-1" d="M39.9,70.89A29.32,29.32,0,0,1,18.61,77a2.85,2.85,0,0,0,.27.25,41.32,41.32,0,0,0,20.6,6.2,45.24,45.24,0,0,0,11.66-1.1,39.09,39.09,0,0,0,11.71-4.77A39.75,39.75,0,0,0,73.8,67.69a43.92,43.92,0,0,0,7.61-15.5,40.56,40.56,0,0,0,1.4-11.91,1.12,1.12,0,0,1,.46-1c1-.82,2-1.64,3-2.53a26.14,26.14,0,0,0,3.83-4.59A26.29,26.29,0,0,1,82,34.23a15.23,15.23,0,0,0,6.14-7.93l-.3.13a29.29,29.29,0,0,1-8.52,3.26,1,1,0,0,1-.8-.21A14.43,14.43,0,0,0,69,25.22,14.1,14.1,0,0,0,58.17,29a14.25,14.25,0,0,0-4.65,12.87c0,.43.1.86.16,1.41A42.22,42.22,0,0,1,23.28,27.9a14.67,14.67,0,0,0-1.56,10.63,15,15,0,0,0,6,8.9,13.7,13.7,0,0,1-6.53-1.74c.49,7.65,4.35,12.44,11.71,14.64a14.44,14.44,0,0,1-6.42.29A14.94,14.94,0,0,0,39.9,70.89"/><path class="cls-2" d="M39.9,70.89A14.94,14.94,0,0,1,26.43,60.62a14.44,14.44,0,0,0,6.42-.29c-7.36-2.2-11.22-7-11.71-14.64a13.7,13.7,0,0,0,6.53,1.74,15,15,0,0,1-6-8.9A14.67,14.67,0,0,1,23.28,27.9a42.22,42.22,0,0,0,30.4,15.38c-.06-.55-.11-1-.16-1.41A14.25,14.25,0,0,1,58.17,29,14.1,14.1,0,0,1,69,25.22a14.43,14.43,0,0,1,9.5,4.26,1,1,0,0,0,.8.21,29.29,29.29,0,0,0,8.52-3.26l.3-.13A15.23,15.23,0,0,1,82,34.23a26.29,26.29,0,0,0,8.07-2.09,26.14,26.14,0,0,1-3.83,4.59c-.94.89-2,1.71-3,2.53a1.12,1.12,0,0,0-.46,1,40.56,40.56,0,0,1-1.4,11.91,43.92,43.92,0,0,1-7.61,15.5,39.75,39.75,0,0,1-10.95,9.89,39.09,39.09,0,0,1-11.71,4.77,45.24,45.24,0,0,1-11.66,1.1,41.32,41.32,0,0,1-20.6-6.2,2.85,2.85,0,0,1-.27-.25A29.32,29.32,0,0,0,39.9,70.89"/></g></g></svg>